<svg xmlns="http://www.w3.org/2000/svg" xmlns:xlink="http://www.w3.org/1999/xlink" viewBox="0 0 283.46 331.09"><defs><style>.cls-1{fill:#90c261;}.cls-2{fill:url(#Dégradé_sans_nom_9);}.cls-3{fill:#1d1d1b;}</style><linearGradient id="Dégradé_sans_nom_9" x1="142.48" y1="178.62" x2="142.48" gradientUnits="userSpaceOnUse"><stop offset="0" stop-color="#90c261"/><stop offset="1" stop-color="#54b0e3"/></linearGradient></defs><title>Fichier 4</title><g id="Calque_2" data-name="Calque 2"><g id="Calque_1-2" data-name="Calque 1"><path class="cls-1" d="M62.88,295.9H55a5.09,5.09,0,0,1-2.85-.65A11,11,0,0,1,50.63,294L17.2,259.83c-.39-.38-.73-.71-1.05-1a3.4,3.4,0,0,0-.82-.53,3.85,3.85,0,0,0-1.15-.33,13.78,13.78,0,0,0-2-.12H8.49v38H0V214H8.49v36.55h3.29a16.52,16.52,0,0,0,1.69-.07,4.12,4.12,0,0,0,1.06-.25,4.37,4.37,0,0,0,.91-.48,8.71,8.71,0,0,0,1-.85l31.84-32.74a7.59,7.59,0,0,1,2-1.54,5.6,5.6,0,0,1,2.48-.51h8L23.94,252a18.5,18.5,0,0,1-1.76,1.66h0a14,14,0,0,1,2.07,2Z"/><path class="cls-1" d="M81.31,219.84a5.63,5.63,0,0,1-.56,2.48,6.84,6.84,0,0,1-1.36,1.92,6.49,6.49,0,0,1-2,1.35,6.19,6.19,0,0,1-4.92,0,6.49,6.49,0,0,1-2-1.35,6.56,6.56,0,0,1-1.35-2,5.91,5.91,0,0,1-.51-2.45,6.34,6.34,0,0,1,.5-2.47,6.46,6.46,0,0,1,1.36-2,6.32,6.32,0,0,1,2-1.35,6.23,6.23,0,0,1,4.92,0,6.4,6.4,0,0,1,2,1.36,6.79,6.79,0,0,1,1.38,2A6,6,0,0,1,81.31,219.84Z"/><rect class="cls-1" x="70.86" y="237.58" width="8.1" height="58.32"/><path class="cls-1" d="M143.53,295.9h-7.82a4.55,4.55,0,0,1-2-.45,5.84,5.84,0,0,1-1.63-1.29l-23.32-25a4.43,4.43,0,0,0-1.29-1.05,4.76,4.76,0,0,0-1.87-.24h-1.1v28H96.36v-84h8.11v49.5h1.16a3.25,3.25,0,0,0,1.05-.16,2.7,2.7,0,0,0,1-.72l22.29-21.17a7.8,7.8,0,0,1,1.49-1.18,4.47,4.47,0,0,1,2.38-.6H142l-27,25.69c-.25.26-.52.52-.77.76l.13.13c.42.43.87.89,1.32,1.38Z"/><rect class="cls-1" x="152.27" y="211.91" width="8.1" height="83.99"/><path class="cls-1" d="M217.84,283.62a4.62,4.62,0,0,0-2.63,1.2,26.21,26.21,0,0,1-3.15,1.95,25.46,25.46,0,0,1-4.89,2,23.82,23.82,0,0,1-6.85.87,20.06,20.06,0,0,1-7.93-1.51,15.66,15.66,0,0,1-5.95-4.44,21,21,0,0,1-3.86-7.46,35.72,35.72,0,0,1-1.39-10.24h38.66a2.72,2.72,0,0,0,2.23-1,4,4,0,0,0,.68-2.56A31.72,31.72,0,0,0,221,251.56a23,23,0,0,0-4.87-8.1,20.93,20.93,0,0,0-7.41-5.05,24.41,24.41,0,0,0-9.2-1.72,27.3,27.3,0,0,0-11.14,2.18A23.9,23.9,0,0,0,180,245a26.7,26.7,0,0,0-5.18,9.18,35.78,35.78,0,0,0-1.78,11.47,41.34,41.34,0,0,0,1.9,13,27.92,27.92,0,0,0,5.48,9.78,23.52,23.52,0,0,0,8.54,6.14,27.94,27.94,0,0,0,10.93,2.09,33.84,33.84,0,0,0,6.49-.64,37.18,37.18,0,0,0,6-1.71,27,27,0,0,0,5.18-2.62,16.79,16.79,0,0,0,3.87-3.42l.71-.89-2.14-2.63A2.68,2.68,0,0,0,217.84,283.62Zm-18.22-40.17a16.49,16.49,0,0,1,6.36,1.2,13.62,13.62,0,0,1,4.86,3.42,15.93,15.93,0,0,1,3.17,5.52,22.21,22.21,0,0,1,1.11,6.15h-33.5a25.47,25.47,0,0,1,1.7-5.91,18.33,18.33,0,0,1,3.73-5.61,15.67,15.67,0,0,1,5.39-3.53A19.69,19.69,0,0,1,199.62,243.45Z"/><path class="cls-1" d="M281.69,254.48a27,27,0,0,0-5.21-9.5,23.23,23.23,0,0,0-8.46-6.14,30.43,30.43,0,0,0-22.47,0,23.36,23.36,0,0,0-8.48,6.14,26.8,26.8,0,0,0-5.25,9.5,43.07,43.07,0,0,0,0,24.44,26.89,26.89,0,0,0,5.25,9.48,23.29,23.29,0,0,0,8.48,6.11,30.83,30.83,0,0,0,22.47,0,23,23,0,0,0,8.46-6.12,27.15,27.15,0,0,0,5.21-9.47,43.07,43.07,0,0,0,0-24.44Zm-24.91,35.16a19.43,19.43,0,0,1-8.09-1.57A15.23,15.23,0,0,1,243,283.6a20.69,20.69,0,0,1-3.49-7.19,39.36,39.36,0,0,1,0-19.37A20.86,20.86,0,0,1,243,249.8a15.22,15.22,0,0,1,5.68-4.52,21.11,21.11,0,0,1,16.17,0,15.22,15.22,0,0,1,5.68,4.52A20.47,20.47,0,0,1,274,257a40.38,40.38,0,0,1,0,19.38,20.26,20.26,0,0,1-3.46,7.18,15.23,15.23,0,0,1-5.67,4.47A19.44,19.44,0,0,1,256.78,289.64Z"/><path class="cls-2" d="M204.78,78.31C199,66.93,190.37,53.92,178.9,39.42A476.58,476.58,0,0,0,144.77.93a3.28,3.28,0,0,0-4.63,0,471.51,471.51,0,0,0-34.09,38.44c-22.93,29-34.54,52-34.54,68.22a71,71,0,1,0,141.93,0Q213.44,95.46,204.78,78.31ZM142.41,54.24a6.8,6.8,0,1,1,6.84-6.8A6.79,6.79,0,0,1,142.41,54.24ZM145.72,172V154.64A54.1,54.1,0,0,0,187.92,130a6.47,6.47,0,0,0,1.32.09,10.41,10.41,0,1,0-10.43-10.38,10.24,10.24,0,0,0,3.17,7.43,48.48,48.48,0,0,1-15.64,14.69,47.85,47.85,0,0,1-20.62,6.25V122.6a29.2,29.2,0,0,0,21.44-9.89,34.66,34.66,0,0,0,8.25-20.62,10.36,10.36,0,1,0-6.53,0c-1.09,13.87-10.47,23.58-23.16,24V60.4a13.36,13.36,0,1,0-6.57,0v38c-8.48-1-15.19-6-18.73-14.19a10.4,10.4,0,1,0-6.61,1A29.9,29.9,0,0,0,139.15,105v24.84a47.19,47.19,0,0,1-20.49-6.26,47.67,47.67,0,0,1-15-13.68,10.39,10.39,0,1,0-6.25,2.4,54.13,54.13,0,0,0,18,16.95,53.49,53.49,0,0,0,23.76,7.16V172C105.33,170.28,78,141.68,78,107.64c0-31.91,54.4-89.35,64.42-99.73,10.06,10.38,64.45,67.82,64.45,99.73C206.91,141.73,179.58,170.33,145.72,172Zm39.66-52.31a3.86,3.86,0,1,1,3.86,3.85A3.88,3.88,0,0,1,185.38,119.7Zm-17-37.54a3.86,3.86,0,1,1,3.86,3.9A3.9,3.9,0,0,1,168.38,82.16ZM119.47,75a3.85,3.85,0,1,1-3.85-3.85A3.85,3.85,0,0,1,119.47,75Zm-18.63,26.84a3.79,3.79,0,0,1-2.22,3.49v0a5,5,0,0,1-1.18.31,3.93,3.93,0,0,1-4.31-3.85,3.86,3.86,0,0,1,7.71,0Z"/><path class="cls-3" d="M45.32,316.6v1.63H40.69v12.7H38.75v-12.7H34.11V316.6Z"/><path class="cls-3" d="M59,330.93H57v-6.52H49.31v6.52h-2V316.6h2V323H57V316.6H59Z"/><path class="cls-3" d="M71.31,316.6v1.58H64.43v4.76H70v1.52H64.43v4.89h6.88v1.58H62.48V316.6Z"/><path class="cls-3" d="M76.36,316.6H78a.71.71,0,0,1,.43.13.63.63,0,0,1,.23.33l3,10c.05.18.1.38.14.58l.12.65c0-.22.1-.44.14-.65s.1-.4.16-.58l3.37-10a.69.69,0,0,1,.24-.31.63.63,0,0,1,.43-.15h.55a.71.71,0,0,1,.43.13.69.69,0,0,1,.23.33l3.36,10c.11.35.22.75.32,1.19,0-.22.07-.43.11-.63a4.61,4.61,0,0,1,.12-.56l3-10a.69.69,0,0,1,.23-.32.67.67,0,0,1,.43-.14h1.5L92,330.93H90.25L86.61,320a6,6,0,0,1-.2-.72c0,.14-.06.26-.09.39a2.58,2.58,0,0,1-.1.33l-3.65,10.93H80.83Z"/><path class="cls-3" d="M109.2,330.93h-1.51a.64.64,0,0,1-.42-.13.83.83,0,0,1-.24-.33L105.69,327H99.27l-1.34,3.46a.76.76,0,0,1-.25.32.59.59,0,0,1-.42.14H95.77l5.73-14.33h2Zm-9.39-5.32h5.35l-2.25-5.83a12,12,0,0,1-.44-1.35c-.07.28-.14.53-.21.76s-.14.43-.21.6Z"/><path class="cls-3" d="M114.88,325.23v5.7H113v-5.7l-5.25-8.63h1.7a.63.63,0,0,1,.41.13,1.35,1.35,0,0,1,.26.32l3.28,5.57a7,7,0,0,1,.34.66c.09.21.17.41.24.61l.24-.62c.09-.2.2-.42.33-.65l3.27-5.57a1.14,1.14,0,0,1,.25-.3.55.55,0,0,1,.4-.15h1.72Z"/><path class="cls-3" d="M129.28,318.84a.75.75,0,0,1-.19.23.4.4,0,0,1-.26.07.65.65,0,0,1-.39-.17,5.71,5.71,0,0,0-.57-.37,5,5,0,0,0-.83-.38,3.68,3.68,0,0,0-1.18-.17,3.43,3.43,0,0,0-1.15.18,2.31,2.31,0,0,0-.83.47,2.11,2.11,0,0,0-.51.71,2.29,2.29,0,0,0-.17.87,1.63,1.63,0,0,0,.3,1,2.56,2.56,0,0,0,.78.67,5.88,5.88,0,0,0,1.1.49l1.26.42c.43.15.85.31,1.26.5a4.26,4.26,0,0,1,1.1.69,3.34,3.34,0,0,1,.78,1,3.55,3.55,0,0,1,.29,1.5,4.72,4.72,0,0,1-.32,1.77,3.93,3.93,0,0,1-.93,1.43,4.25,4.25,0,0,1-1.51,1,5.46,5.46,0,0,1-2,.35,6.31,6.31,0,0,1-2.53-.5,6,6,0,0,1-2-1.37l.56-.92a.86.86,0,0,1,.2-.18.44.44,0,0,1,.25-.08.81.81,0,0,1,.48.23,8.23,8.23,0,0,0,.68.49,5.26,5.26,0,0,0,1,.5,3.85,3.85,0,0,0,1.4.22,3.61,3.61,0,0,0,1.23-.19,2.45,2.45,0,0,0,.92-.53,2.28,2.28,0,0,0,.57-.83,2.62,2.62,0,0,0,.2-1.07,1.75,1.75,0,0,0-.29-1.06,2.52,2.52,0,0,0-.78-.7,5.77,5.77,0,0,0-1.09-.47l-1.26-.4q-.64-.21-1.26-.48a4,4,0,0,1-1.1-.7,3.16,3.16,0,0,1-.77-1.07,4.2,4.2,0,0,1,0-3.07,4,4,0,0,1,.85-1.26,4.35,4.35,0,0,1,1.39-.88,5.06,5.06,0,0,1,1.89-.33,6.14,6.14,0,0,1,2.19.38,5.11,5.11,0,0,1,1.73,1.1Z"/><path class="cls-3" d="M149.71,323.77a8.51,8.51,0,0,1-.5,3,6.92,6.92,0,0,1-1.45,2.31,6.43,6.43,0,0,1-2.23,1.51,8.12,8.12,0,0,1-5.77,0,6.48,6.48,0,0,1-2.22-1.51,6.77,6.77,0,0,1-1.45-2.31,8.82,8.82,0,0,1,0-5.91,6.81,6.81,0,0,1,1.45-2.32,6.51,6.51,0,0,1,2.22-1.52,8,8,0,0,1,5.77,0,6.45,6.45,0,0,1,2.23,1.52,7,7,0,0,1,1.45,2.32A8.45,8.45,0,0,1,149.71,323.77Zm-2,0a7.28,7.28,0,0,0-.36-2.37,4.82,4.82,0,0,0-1-1.77,4.33,4.33,0,0,0-1.6-1.12,5.8,5.8,0,0,0-4.18,0,4.37,4.37,0,0,0-1.61,1.12,5.13,5.13,0,0,0-1,1.77,8,8,0,0,0,0,4.74,5.32,5.32,0,0,0,1,1.77,4.46,4.46,0,0,0,1.61,1.11,5.94,5.94,0,0,0,4.18,0,4.43,4.43,0,0,0,1.6-1.11,5,5,0,0,0,1-1.77A7.28,7.28,0,0,0,147.72,323.77Z"/><path class="cls-3" d="M161.19,316.6v1.58h-6.88v5h5.88v1.58h-5.88v6.16h-1.95V316.6Z"/><path class="cls-3" d="M177.65,328a.41.41,0,0,1,.28.13l.77.83a6.15,6.15,0,0,1-2.14,1.59,8,8,0,0,1-5.84,0,6.18,6.18,0,0,1-2.14-1.5,6.84,6.84,0,0,1-1.39-2.32,8.81,8.81,0,0,1-.48-3,8.13,8.13,0,0,1,.52-3,6.86,6.86,0,0,1,1.47-2.32A6.7,6.7,0,0,1,171,317a7.68,7.68,0,0,1,2.93-.54,6.5,6.5,0,0,1,4.75,1.82l-.63.89a.65.65,0,0,1-.16.17.45.45,0,0,1-.26.06.54.54,0,0,1-.27-.09l-.35-.24c-.13-.09-.28-.19-.47-.3a5.59,5.59,0,0,0-.64-.3,5.18,5.18,0,0,0-.85-.23,5.52,5.52,0,0,0-1.13-.1,5.36,5.36,0,0,0-2.11.4,4.61,4.61,0,0,0-1.64,1.12,4.92,4.92,0,0,0-1.08,1.78,6.74,6.74,0,0,0-.38,2.35,6.81,6.81,0,0,0,.38,2.39,5.31,5.31,0,0,0,1.05,1.78,4.38,4.38,0,0,0,1.58,1.1,4.88,4.88,0,0,0,2,.38,8,8,0,0,0,1.15-.07,4.4,4.4,0,0,0,.95-.24,3.82,3.82,0,0,0,.81-.4,6.44,6.44,0,0,0,.75-.59A.54.54,0,0,1,177.65,328Z"/><path class="cls-3" d="M192.86,330.93h-2v-6.52h-7.72v6.52h-1.95V316.6h1.95V323h7.72V316.6h2Z"/><path class="cls-3" d="M208.15,330.93h-1.5a.64.64,0,0,1-.42-.13.83.83,0,0,1-.24-.33L204.65,327h-6.43l-1.34,3.46a.66.66,0,0,1-.24.32.59.59,0,0,1-.42.14h-1.5l5.73-14.33h2Zm-9.39-5.32h5.35l-2.25-5.83a12.16,12.16,0,0,1-.43-1.35c-.07.28-.14.53-.21.76s-.14.43-.21.6Z"/><path class="cls-3" d="M211.35,316.67a.92.92,0,0,1,.28.26l8.3,10.8c0-.17,0-.34,0-.5s0-.32,0-.48V316.6h1.7v14.33h-1a.74.74,0,0,1-.38-.08.94.94,0,0,1-.31-.27l-8.29-10.79a4.15,4.15,0,0,1,0,.49c0,.16,0,.31,0,.44v10.21H210V316.6h1A.77.77,0,0,1,211.35,316.67Z"/><path class="cls-3" d="M231.47,329.52c.39,0,.75,0,1.07,0a6.13,6.13,0,0,0,.91-.17,5.92,5.92,0,0,0,.81-.26,7.51,7.51,0,0,0,.76-.36v-3.16H232.8a.39.39,0,0,1-.3-.11.34.34,0,0,1-.12-.27V324h4.4v5.5a7.6,7.6,0,0,1-1.12.68,7.22,7.22,0,0,1-1.25.49A9.76,9.76,0,0,1,233,331a13.91,13.91,0,0,1-1.65.09,7.58,7.58,0,0,1-2.86-.53,6.78,6.78,0,0,1-2.24-1.5,7,7,0,0,1-1.46-2.32,8.13,8.13,0,0,1-.53-3,8.41,8.41,0,0,1,.52-3,6.44,6.44,0,0,1,1.47-2.31,6.55,6.55,0,0,1,2.31-1.5,8.3,8.3,0,0,1,3-.53,8.64,8.64,0,0,1,1.58.13,6.94,6.94,0,0,1,1.36.36,5.36,5.36,0,0,1,1.15.57,6.13,6.13,0,0,1,1,.75l-.55.88a.5.5,0,0,1-.44.27.67.67,0,0,1-.35-.11c-.16-.09-.35-.2-.56-.34a4.34,4.34,0,0,0-.75-.38,6,6,0,0,0-1.05-.32,7.38,7.38,0,0,0-1.44-.13,5.73,5.73,0,0,0-2.19.4,4.62,4.62,0,0,0-1.67,1.13,5,5,0,0,0-1.06,1.78,7.13,7.13,0,0,0-.37,2.34,7,7,0,0,0,.39,2.43,5.06,5.06,0,0,0,1.08,1.8,4.63,4.63,0,0,0,1.66,1.13A5.59,5.59,0,0,0,231.47,329.52Z"/><path class="cls-3" d="M248.59,316.6v1.58h-6.88v4.76h5.57v1.52h-5.57v4.89h6.88v1.58h-8.83V316.6Z"/></g></g></svg>